<mxfile host="app.diagrams.net" modified="2024-06-02T09:34:06.367Z" agent="Mozilla/5.0 (Macintosh; Intel Mac OS X 10_15_7) AppleWebKit/537.36 (KHTML, like Gecko) Chrome/123.0.0.0 Safari/537.36" etag="3_D_A2TRwkU68zzZC8LT" version="24.2.5" type="device">
  <diagram name="Page-1" id="D9LIEILpVpGueqFPK0TL">
    <mxGraphModel dx="943" dy="538" grid="1" gridSize="10" guides="1" tooltips="1" connect="1" arrows="1" fold="1" page="1" pageScale="1" pageWidth="827" pageHeight="1169" math="0" shadow="0">
      <root>
        <mxCell id="0" />
        <mxCell id="1" parent="0" />
        <mxCell id="5lgF-B48ensd-EPBzMQI-40" style="edgeStyle=orthogonalEdgeStyle;rounded=0;orthogonalLoop=1;jettySize=auto;html=1;exitX=1;exitY=0.5;exitDx=0;exitDy=0;entryX=0.5;entryY=1;entryDx=0;entryDy=0;fontSize=7;" edge="1" parent="1" source="5lgF-B48ensd-EPBzMQI-1" target="5lgF-B48ensd-EPBzMQI-18">
          <mxGeometry relative="1" as="geometry" />
        </mxCell>
        <mxCell id="5lgF-B48ensd-EPBzMQI-1" value="" style="rounded=1;whiteSpace=wrap;html=1;fillColor=#ffe6cc;strokeColor=#d79b00;" vertex="1" parent="1">
          <mxGeometry x="40" y="45" width="20" height="160" as="geometry" />
        </mxCell>
        <mxCell id="5lgF-B48ensd-EPBzMQI-2" value="" style="ellipse;whiteSpace=wrap;html=1;aspect=fixed;" vertex="1" parent="1">
          <mxGeometry x="45" y="50" width="10" height="10" as="geometry" />
        </mxCell>
        <mxCell id="5lgF-B48ensd-EPBzMQI-3" value="" style="ellipse;whiteSpace=wrap;html=1;aspect=fixed;" vertex="1" parent="1">
          <mxGeometry x="45" y="65" width="10" height="10" as="geometry" />
        </mxCell>
        <mxCell id="5lgF-B48ensd-EPBzMQI-4" value="" style="ellipse;whiteSpace=wrap;html=1;aspect=fixed;" vertex="1" parent="1">
          <mxGeometry x="45" y="79" width="10" height="10" as="geometry" />
        </mxCell>
        <mxCell id="5lgF-B48ensd-EPBzMQI-5" value="" style="ellipse;whiteSpace=wrap;html=1;aspect=fixed;" vertex="1" parent="1">
          <mxGeometry x="45" y="94" width="10" height="10" as="geometry" />
        </mxCell>
        <mxCell id="5lgF-B48ensd-EPBzMQI-6" value="" style="ellipse;whiteSpace=wrap;html=1;aspect=fixed;" vertex="1" parent="1">
          <mxGeometry x="45" y="110" width="10" height="10" as="geometry" />
        </mxCell>
        <mxCell id="5lgF-B48ensd-EPBzMQI-7" value="" style="ellipse;whiteSpace=wrap;html=1;aspect=fixed;" vertex="1" parent="1">
          <mxGeometry x="45" y="126" width="10" height="10" as="geometry" />
        </mxCell>
        <mxCell id="5lgF-B48ensd-EPBzMQI-8" value="" style="ellipse;whiteSpace=wrap;html=1;aspect=fixed;" vertex="1" parent="1">
          <mxGeometry x="45" y="157" width="10" height="10" as="geometry" />
        </mxCell>
        <mxCell id="5lgF-B48ensd-EPBzMQI-9" value="" style="ellipse;whiteSpace=wrap;html=1;aspect=fixed;" vertex="1" parent="1">
          <mxGeometry x="45" y="141" width="10" height="10" as="geometry" />
        </mxCell>
        <mxCell id="5lgF-B48ensd-EPBzMQI-14" value="" style="ellipse;whiteSpace=wrap;html=1;aspect=fixed;" vertex="1" parent="1">
          <mxGeometry x="45" y="173" width="10" height="10" as="geometry" />
        </mxCell>
        <mxCell id="5lgF-B48ensd-EPBzMQI-15" value="" style="ellipse;whiteSpace=wrap;html=1;aspect=fixed;" vertex="1" parent="1">
          <mxGeometry x="45" y="189" width="10" height="10" as="geometry" />
        </mxCell>
        <mxCell id="5lgF-B48ensd-EPBzMQI-42" style="edgeStyle=orthogonalEdgeStyle;rounded=0;orthogonalLoop=1;jettySize=auto;html=1;exitX=0.5;exitY=0;exitDx=0;exitDy=0;entryX=0;entryY=0.5;entryDx=0;entryDy=0;" edge="1" parent="1" source="5lgF-B48ensd-EPBzMQI-18" target="5lgF-B48ensd-EPBzMQI-25">
          <mxGeometry relative="1" as="geometry" />
        </mxCell>
        <mxCell id="5lgF-B48ensd-EPBzMQI-18" value="" style="shape=trapezoid;perimeter=trapezoidPerimeter;whiteSpace=wrap;html=1;fixedSize=1;rotation=90;fillColor=#dae8fc;strokeColor=#6c8ebf;" vertex="1" parent="1">
          <mxGeometry x="71.5" y="85" width="105" height="78" as="geometry" />
        </mxCell>
        <mxCell id="5lgF-B48ensd-EPBzMQI-19" value="x" style="text;html=1;align=center;verticalAlign=middle;whiteSpace=wrap;rounded=0;fontStyle=1;fontFamily=Verdana;" vertex="1" parent="1">
          <mxGeometry x="20" y="21" width="60" height="30" as="geometry" />
        </mxCell>
        <mxCell id="5lgF-B48ensd-EPBzMQI-22" value="&lt;font style=&quot;font-size: 8px;&quot;&gt;Neural Network&lt;br style=&quot;font-size: 8px;&quot;&gt;&lt;/font&gt;&lt;div style=&quot;font-size: 8px;&quot;&gt;&lt;font style=&quot;font-size: 8px;&quot;&gt;&lt;span style=&quot;font-family: Times; font-size: 8px;&quot;&gt;&lt;font style=&quot;font-size: 8px;&quot;&gt;&lt;i style=&quot;font-size: 8px;&quot;&gt;f&lt;sub style=&quot;font-size: 8px;&quot;&gt;Ï†&lt;/sub&gt;&lt;/i&gt;&lt;/font&gt;&lt;/span&gt;&lt;br style=&quot;font-size: 8px;&quot;&gt;&lt;/font&gt;&lt;/div&gt;" style="text;html=1;align=center;verticalAlign=middle;whiteSpace=wrap;rounded=0;fontColor=#000000;fontSize=8;" vertex="1" parent="1">
          <mxGeometry x="94" y="109" width="60" height="31" as="geometry" />
        </mxCell>
        <mxCell id="5lgF-B48ensd-EPBzMQI-43" style="edgeStyle=orthogonalEdgeStyle;rounded=0;orthogonalLoop=1;jettySize=auto;html=1;exitX=1;exitY=0.5;exitDx=0;exitDy=0;" edge="1" parent="1" source="5lgF-B48ensd-EPBzMQI-25" target="5lgF-B48ensd-EPBzMQI-44">
          <mxGeometry relative="1" as="geometry">
            <mxPoint x="230" y="123.81818181818176" as="targetPoint" />
            <Array as="points">
              <mxPoint x="250" y="124" />
              <mxPoint x="250" y="124" />
            </Array>
          </mxGeometry>
        </mxCell>
        <mxCell id="5lgF-B48ensd-EPBzMQI-25" value="" style="rounded=1;whiteSpace=wrap;html=1;fillColor=#f8cecc;strokeColor=#b85450;" vertex="1" parent="1">
          <mxGeometry x="184" y="89" width="20" height="70" as="geometry" />
        </mxCell>
        <mxCell id="5lgF-B48ensd-EPBzMQI-29" value="" style="ellipse;whiteSpace=wrap;html=1;aspect=fixed;" vertex="1" parent="1">
          <mxGeometry x="189" y="93" width="10" height="10" as="geometry" />
        </mxCell>
        <mxCell id="5lgF-B48ensd-EPBzMQI-30" value="" style="ellipse;whiteSpace=wrap;html=1;aspect=fixed;" vertex="1" parent="1">
          <mxGeometry x="189" y="109" width="10" height="10" as="geometry" />
        </mxCell>
        <mxCell id="5lgF-B48ensd-EPBzMQI-31" value="" style="ellipse;whiteSpace=wrap;html=1;aspect=fixed;" vertex="1" parent="1">
          <mxGeometry x="189" y="127" width="10" height="10" as="geometry" />
        </mxCell>
        <mxCell id="5lgF-B48ensd-EPBzMQI-33" value="" style="ellipse;whiteSpace=wrap;html=1;aspect=fixed;" vertex="1" parent="1">
          <mxGeometry x="189" y="144" width="10" height="10" as="geometry" />
        </mxCell>
        <mxCell id="5lgF-B48ensd-EPBzMQI-41" value="z" style="text;html=1;align=center;verticalAlign=middle;whiteSpace=wrap;rounded=0;fontStyle=1;fontFamily=Verdana;" vertex="1" parent="1">
          <mxGeometry x="164" y="63" width="60" height="30" as="geometry" />
        </mxCell>
        <mxCell id="5lgF-B48ensd-EPBzMQI-44" value="" style="ellipse;whiteSpace=wrap;html=1;aspect=fixed;" vertex="1" parent="1">
          <mxGeometry x="260" y="88" width="70" height="70" as="geometry" />
        </mxCell>
        <mxCell id="5lgF-B48ensd-EPBzMQI-45" value="" style="ellipse;whiteSpace=wrap;html=1;aspect=fixed;" vertex="1" parent="1">
          <mxGeometry x="NaN" y="NaN" width="NaN" height="20" as="geometry" />
        </mxCell>
        <mxCell id="5lgF-B48ensd-EPBzMQI-46" value="" style="ellipse;whiteSpace=wrap;html=1;aspect=fixed;fillColor=#d5e8d4;strokeColor=#82b366;" vertex="1" parent="1">
          <mxGeometry x="315" y="104" width="10" height="10" as="geometry" />
        </mxCell>
        <mxCell id="5lgF-B48ensd-EPBzMQI-47" value="" style="ellipse;whiteSpace=wrap;html=1;aspect=fixed;fillColor=#d5e8d4;strokeColor=#82b366;" vertex="1" parent="1">
          <mxGeometry x="290" y="142" width="10" height="10" as="geometry" />
        </mxCell>
        <mxCell id="5lgF-B48ensd-EPBzMQI-48" value="" style="ellipse;whiteSpace=wrap;html=1;aspect=fixed;fillColor=#d5e8d4;strokeColor=#82b366;" vertex="1" parent="1">
          <mxGeometry x="280" y="111" width="10" height="10" as="geometry" />
        </mxCell>
        <mxCell id="5lgF-B48ensd-EPBzMQI-49" value="" style="ellipse;whiteSpace=wrap;html=1;aspect=fixed;fillColor=#d5e8d4;strokeColor=#82b366;" vertex="1" parent="1">
          <mxGeometry x="315" y="125" width="10" height="10" as="geometry" />
        </mxCell>
        <mxCell id="5lgF-B48ensd-EPBzMQI-50" value="" style="ellipse;whiteSpace=wrap;html=1;aspect=fixed;fillColor=#d5e8d4;strokeColor=#82b366;" vertex="1" parent="1">
          <mxGeometry x="270" y="135" width="10" height="10" as="geometry" />
        </mxCell>
        <mxCell id="5lgF-B48ensd-EPBzMQI-51" value="" style="ellipse;whiteSpace=wrap;html=1;aspect=fixed;fillColor=#d5e8d4;strokeColor=#82b366;" vertex="1" parent="1">
          <mxGeometry x="290" y="95" width="10" height="10" as="geometry" />
        </mxCell>
        <mxCell id="5lgF-B48ensd-EPBzMQI-53" value="" style="shape=mxgraph.sysml.x;fillColor=#f8cecc;strokeColor=#b85450;" vertex="1" parent="1">
          <mxGeometry x="316" y="82" width="10" height="10" as="geometry" />
        </mxCell>
        <mxCell id="5lgF-B48ensd-EPBzMQI-55" value="" style="shape=mxgraph.sysml.x;fillColor=#f8cecc;strokeColor=#b85450;" vertex="1" parent="1">
          <mxGeometry x="329" y="136" width="10" height="10" as="geometry" />
        </mxCell>
        <mxCell id="5lgF-B48ensd-EPBzMQI-56" value="" style="shape=mxgraph.sysml.x;fillColor=#f8cecc;strokeColor=#b85450;" vertex="1" parent="1">
          <mxGeometry x="270" y="79" width="10" height="10" as="geometry" />
        </mxCell>
        <mxCell id="5lgF-B48ensd-EPBzMQI-57" value="" style="shape=mxgraph.sysml.x;fillColor=#f8cecc;strokeColor=#b85450;" vertex="1" parent="1">
          <mxGeometry x="270" y="159" width="10" height="10" as="geometry" />
        </mxCell>
        <mxCell id="5lgF-B48ensd-EPBzMQI-58" value="&lt;font style=&quot;font-size: 6px;&quot;&gt;Hypersphere&lt;/font&gt;&lt;div style=&quot;font-size: 6px;&quot;&gt;&lt;font style=&quot;font-size: 6px;&quot;&gt;minimization&lt;/font&gt;&lt;/div&gt;" style="text;html=1;align=center;verticalAlign=middle;whiteSpace=wrap;rounded=0;fontSize=6;" vertex="1" parent="1">
          <mxGeometry x="200" y="108" width="60" height="30" as="geometry" />
        </mxCell>
      </root>
    </mxGraphModel>
  </diagram>
</mxfile>
